<svg width="60" height="60" viewBox="0 0 60 60" fill="none" xmlns="http://www.w3.org/2000/svg">
<path d="M26.6879 43.1518C27.2621 43.3007 27.6072 43.8882 27.4583 44.4619C27.3094 45.0361 26.7227 45.3813 26.1482 45.2323C25.7789 45.1369 25.4126 45.0249 25.0571 44.9C24.702 44.7756 24.3452 44.6324 23.9942 44.476C22.5816 43.8479 21.2923 42.99 20.1713 41.9524C20.0609 42.2071 19.9319 42.454 19.7867 42.6908C19.2748 43.5284 18.5479 44.2561 17.6415 44.7788C16.7362 45.3024 15.7431 45.5671 14.7585 45.5924C13.7438 45.6181 12.7365 45.3887 11.8362 44.9332C11.4442 44.7361 11.2264 44.3308 11.2467 43.9184L11.2479 43.906C11.3039 42.8949 11.6093 41.908 12.1366 41.0496C12.6485 40.2132 13.3729 39.4872 14.281 38.9629C15.1862 38.4406 16.1781 38.1763 17.1596 38.1502L17.2654 38.1489C17.026 37.688 16.8107 37.2134 16.6211 36.7243C16.1909 36.9446 15.7325 37.1155 15.2587 37.2288C14.3033 37.4578 13.2774 37.4603 12.27 37.1902C11.2582 36.9189 10.3692 36.4036 9.65602 35.7257C8.91882 35.0271 8.365 34.1492 8.05297 33.1872C7.90653 32.7375 8.07371 32.2612 8.43133 31.9924C9.16978 31.351 10.0597 30.8901 11.0188 30.6594C11.9759 30.43 12.9997 30.4275 14.0071 30.6972C14.6144 30.8602 15.1774 31.1096 15.6839 31.4307C15.6943 30.8171 15.7462 30.2122 15.8341 29.6202C15.3491 29.5974 14.865 29.5144 14.3949 29.3758C13.4491 29.0958 12.5563 28.5826 11.8191 27.8454C11.0818 27.1078 10.5699 26.2167 10.2895 25.2708C10.002 24.2967 9.96134 23.2612 10.17 22.2722C10.2605 21.8429 10.5965 21.5284 11.0002 21.4421C11.9892 21.2334 13.0246 21.2741 13.9987 21.562C14.9446 21.842 15.8358 22.354 16.5729 23.0911C17.0077 23.5251 17.3641 24.0142 17.6416 24.5349C17.9187 24.069 18.2207 23.6193 18.548 23.1903C18.2817 22.4672 18.1531 21.6956 18.1722 20.9198C18.1979 19.9395 18.4626 18.948 18.9861 18.0398C19.5105 17.128 20.2378 16.4036 21.0741 15.8916C21.937 15.3618 22.9281 15.0553 23.9416 15.0013C24.3793 14.9798 24.7705 15.2233 24.9564 15.5908C25.4119 16.4915 25.6413 17.4984 25.6148 18.5143C25.5903 19.4972 25.326 20.4907 24.8021 21.3973C24.2777 22.305 23.5504 23.0297 22.7141 23.5416C21.9918 23.9847 21.1824 24.271 20.3432 24.3842C19.5869 25.3538 18.9758 26.4457 18.5481 27.6189C18.427 27.9537 18.3187 28.296 18.227 28.6449L18.222 28.664L18.2017 28.7428L18.1967 28.7619L18.1955 28.7685C17.9627 29.6982 17.8379 30.6732 17.8379 31.6791C17.8379 32.7308 17.9731 33.7497 18.2291 34.7197L18.2357 34.7404L18.2407 34.7607L18.2453 34.7815C18.5713 35.9846 19.0791 37.1126 19.7391 38.1274C19.9428 38.4406 20.1606 38.7439 20.3909 39.0355L20.3946 39.0392L20.4071 39.0546L20.49 39.1591C21.6591 40.5979 23.1588 41.7541 24.8685 42.5154C25.1527 42.6415 25.4531 42.7622 25.7638 42.8705C26.0654 42.9763 26.3761 43.0717 26.6869 43.1518L26.6879 43.1518ZM23.4694 18.4634C23.4806 18.0561 23.4258 17.6499 23.3138 17.2591C22.9213 17.3574 22.5434 17.5151 22.1962 17.7279C21.6573 18.056 21.1877 18.5265 20.8487 19.1131C20.5085 19.7014 20.3367 20.3419 20.3206 20.9708C20.3102 21.377 20.3637 21.7835 20.477 22.1739C20.869 22.076 21.2474 21.9196 21.5946 21.7055C22.133 21.377 22.6031 20.9069 22.9421 20.3203C23.2823 19.7308 23.454 19.0915 23.4694 18.4634V18.4634ZM13.9732 42.1694C13.7591 42.517 13.6015 42.8954 13.5044 43.2887C13.8939 43.4019 14.3013 43.4555 14.7075 43.4451C15.3356 43.4285 15.9757 43.2567 16.5644 42.917C17.1526 42.5768 17.6222 42.1084 17.9509 41.5694C18.1633 41.2218 18.3213 40.8451 18.4176 40.453C18.028 40.3398 17.6219 40.285 17.2182 40.2962C16.5868 40.3115 15.9479 40.4837 15.3579 40.8235C14.7705 41.162 14.3009 41.6316 13.9727 42.1693L13.9732 42.1694ZM11.5155 32.747C11.1205 32.8412 10.7439 32.9976 10.3979 33.2063C10.5929 33.5618 10.8435 33.8862 11.1389 34.1663C11.5948 34.5994 12.1706 34.9329 12.8261 35.1084C13.4853 35.2856 14.1516 35.2856 14.7627 35.1395C15.1551 35.0449 15.5322 34.8885 15.8795 34.6782C15.6833 34.3231 15.4335 33.9982 15.1382 33.7182C14.6826 33.2855 14.1085 32.9532 13.4526 32.7773C12.7913 32.6001 12.1283 32.6001 11.5156 32.747L11.5155 32.747ZM13.3936 23.6234C13.0041 23.5093 12.5979 23.4541 12.1918 23.462C12.1839 23.8682 12.2387 24.2747 12.3532 24.6643C12.5303 25.2637 12.8626 25.8371 13.3451 26.3191C13.828 26.802 14.4022 27.1356 15.0017 27.3123C15.3913 27.4272 15.7978 27.4803 16.2023 27.4729C16.2102 27.068 16.1571 26.6618 16.0422 26.2722C15.8651 25.6723 15.5319 25.0981 15.049 24.6152C14.5665 24.1327 13.9936 23.8004 13.3937 23.6233L13.3936 23.6234Z" fill="black"/>
<path d="M48.9802 33.2068C48.6338 32.9981 48.2559 32.8417 47.8618 32.7475C47.2499 32.6011 46.5849 32.6011 45.9253 32.7778C45.2698 32.9533 44.6952 33.286 44.2393 33.7187C43.9439 33.9988 43.6941 34.3236 43.4991 34.6787C43.8455 34.8874 44.2226 35.0455 44.6147 35.1401C45.2258 35.2861 45.8916 35.2861 46.5517 35.1089C47.2059 34.9335 47.7813 34.6007 48.2385 34.1668C48.5339 33.8868 48.7849 33.5623 48.9799 33.2068L48.9802 33.2068ZM47.1859 23.4625C46.7793 23.455 46.3732 23.5098 45.9837 23.6239C45.3838 23.801 44.8108 24.1333 44.3284 24.6158C43.8459 25.0987 43.5119 25.6729 43.3352 26.2728C43.2211 26.6624 43.1676 27.0685 43.175 27.4735C43.5799 27.4809 43.9861 27.4274 44.3757 27.3129C44.9752 27.1358 45.5498 26.8026 46.0323 26.3197C46.5152 25.8372 46.8471 25.2643 47.0242 24.6649C47.1391 24.2753 47.1939 23.8687 47.1864 23.4626L47.1859 23.4625ZM33.2295 45.2324C32.6554 45.3813 32.0683 45.0361 31.9194 44.462C31.7705 43.8878 32.1156 43.3007 32.6898 43.1518C33.0009 43.0717 33.3113 42.9763 33.6133 42.8705C33.9236 42.7623 34.2244 42.6415 34.5081 42.5154C36.2178 41.7541 37.7171 40.5954 38.8866 39.1591L38.9696 39.0546L38.9821 39.0392L38.9862 39.0355C39.2165 38.7439 39.4355 38.4423 39.638 38.1274C40.2972 37.111 40.8079 35.9846 41.1314 34.7815L41.1364 34.7608L41.1414 34.7404L41.1476 34.7197C41.406 33.7506 41.5388 32.73 41.5388 31.6791C41.5388 30.6731 41.4143 29.6982 41.1812 28.7685L41.1799 28.7619L41.175 28.7428L41.1546 28.664L41.1497 28.6449C41.0567 28.296 40.9497 27.9521 40.829 27.6189C40.4008 26.4457 39.7897 25.3538 39.0335 24.3842C38.1959 24.271 37.3844 23.9847 36.6626 23.5416C35.8262 23.0297 35.0993 22.3049 34.5746 21.3973C34.0514 20.4908 33.7863 19.4972 33.7627 18.5143C33.7361 17.4979 33.9651 16.4899 34.4207 15.5908C34.6065 15.2233 34.9977 14.9798 35.4354 15.0013C36.4493 15.0553 37.4396 15.3618 38.3029 15.8916C39.1397 16.4036 39.8666 17.1279 40.3918 18.036C40.9149 18.9479 41.18 19.9398 41.2053 20.9197C41.2244 21.695 41.0958 22.4671 40.8299 23.1902C41.156 23.6192 41.4588 24.0672 41.7364 24.5348C42.0135 24.0141 42.3703 23.525 42.8047 23.091C43.5419 22.3538 44.433 21.8418 45.3793 21.5619C46.3534 21.274 47.3885 21.2333 48.3779 21.442C48.7815 21.5287 49.118 21.8427 49.208 22.2721C49.4167 23.2612 49.3756 24.2966 49.0881 25.2707C48.8081 26.2166 48.2961 27.1077 47.559 27.8453C46.8213 28.5825 45.9289 29.0957 44.9827 29.3757C44.513 29.5143 44.0293 29.5973 43.5439 29.6201C43.6314 30.2121 43.6841 30.817 43.6941 31.4306C44.2006 31.1099 44.7631 30.8601 45.3705 30.6971C46.3778 30.4274 47.4017 30.4295 48.3592 30.6593C49.318 30.8896 50.2083 31.3505 50.9467 31.9923C51.3043 32.2611 51.4711 32.7374 51.3246 33.1871C51.0127 34.1496 50.4601 35.0257 49.7216 35.7256C49.0097 36.4018 48.1198 36.9187 47.1076 37.1901C46.1003 37.4597 45.0743 37.4577 44.1193 37.2287C43.6455 37.1154 43.1883 36.9445 42.7582 36.7258C42.5698 37.2146 42.3545 37.6883 42.1139 38.1488L42.2184 38.15C43.2004 38.1757 44.1924 38.4404 45.0975 38.9627C46.0053 39.4871 46.73 40.2131 47.2419 41.0494C47.7688 41.9078 48.0745 42.8947 48.1301 43.9004L48.1314 43.9182C48.1521 44.3306 47.9343 44.7359 47.5419 44.933C46.6416 45.3885 45.6343 45.6179 44.6195 45.5922C43.6351 45.5669 42.6423 45.3022 41.7366 44.7787C40.8306 44.2555 40.1033 43.5283 39.5914 42.6907C39.4462 42.4538 39.3176 42.2069 39.2056 41.9522C38.0863 42.9885 36.7964 43.8478 35.3846 44.4759C35.0328 44.6323 34.6765 44.775 34.3209 44.8998C33.9658 45.0247 33.599 45.1367 33.2298 45.2322L33.2295 45.2324ZM36.0643 17.2591C35.9518 17.6503 35.8971 18.056 35.9087 18.4635C35.9236 19.0916 36.0954 19.7309 36.4356 20.3203C36.7745 20.9069 37.2441 21.377 37.7831 21.7056C38.1307 21.918 38.5091 22.076 38.9007 22.174C39.0139 21.7836 39.0679 21.377 39.0575 20.9709C39.0405 20.3419 38.8687 19.7014 38.5302 19.1119C38.19 18.5265 37.7204 18.0564 37.1819 17.7279C36.8339 17.5155 36.4559 17.3574 36.0643 17.2591L36.0643 17.2591ZM45.8732 43.2888C45.7765 42.8955 45.6189 42.5172 45.4048 42.1695C45.075 41.6318 44.6062 41.1622 44.0196 40.8237C43.4301 40.4835 42.7908 40.3117 42.1627 40.2964C41.7553 40.2852 41.3492 40.34 40.9596 40.4532C41.0567 40.8453 41.2143 41.2224 41.4272 41.5696C41.7553 42.1081 42.2258 42.5769 42.8137 42.9172C43.402 43.2574 44.042 43.4291 44.6701 43.4453C45.0763 43.4557 45.4837 43.4022 45.8732 43.2889L45.8732 43.2888Z" fill="black"/>
<path d="M30.1247 33.9175L32.1491 34.809L31.9263 32.6074C31.8944 32.2788 32.0139 31.9706 32.2279 31.7503L33.668 30.1377L31.5049 29.6693C31.1788 29.5992 30.9191 29.3863 30.7768 29.1117L29.6903 27.2473L28.5789 29.1548C28.4213 29.4274 28.1611 29.6045 27.8761 29.6668L25.7126 30.138L27.1845 31.7859C27.3932 32.0186 27.4816 32.3178 27.4521 32.6073L27.2318 34.809L29.2563 33.9174C29.5442 33.7913 29.8574 33.8004 30.125 33.9174L30.1247 33.9175ZM32.9689 37.5247L29.6899 36.0794L26.4112 37.5247C26.2461 37.5948 26.0623 37.6276 25.8711 37.6089C25.2815 37.5513 24.8501 37.0231 24.9073 36.4337L25.2674 32.8617L22.9438 30.2601C22.7899 30.1153 22.6762 29.9253 22.6297 29.7038C22.5049 29.1229 22.8741 28.5475 23.4549 28.423L26.9588 27.6642L28.7593 24.5727C28.851 24.4151 28.9821 24.2786 29.1513 24.1803C29.6645 23.8837 30.3242 24.0596 30.6208 24.5727L32.4213 27.6642L35.9252 28.423C36.1007 28.4653 36.2691 28.5475 36.4126 28.6765C36.8532 29.0715 36.8918 29.7514 36.4969 30.192L34.1118 32.8617L34.4657 36.3686C34.4976 36.5661 34.4744 36.776 34.3881 36.9735C34.1487 37.5173 33.5123 37.7638 32.9689 37.5248L32.9689 37.5247Z" fill="black"/>
</svg>
