<svg width="60" height="60" viewBox="0 0 60 60" fill="none" xmlns="http://www.w3.org/2000/svg">
<path d="M28.1923 41.4141C28.1566 41.1999 28.037 41.0089 27.86 40.8833C27.6831 40.7576 27.4633 40.7075 27.2495 40.7439C27.0354 40.7808 26.8451 40.9011 26.7198 41.0784C26.5949 41.2557 26.5456 41.4756 26.5828 41.6894L27.0137 44.214L20.3532 40.7071C20.1148 40.5811 19.8296 40.5811 19.5912 40.7071L12.9265 44.214L14.1996 36.7914V36.7918C14.2448 36.5267 14.1567 36.2568 13.9646 36.0692L8.57186 30.8108L16.0249 29.7283C16.2906 29.6899 16.5204 29.5229 16.6392 29.2822L19.9721 22.5324L23.3001 29.2822C23.4193 29.5233 23.649 29.6903 23.9152 29.7291L31.3659 30.8112L25.9772 36.0692C25.7847 36.2568 25.697 36.5271 25.7426 36.7918L26.1872 39.3995C26.2722 39.8338 26.688 40.1213 27.1246 40.0476C27.5609 39.9736 27.859 39.5654 27.7967 39.1272L27.4238 36.9418L33.6945 30.828C33.9174 30.6112 33.9975 30.2866 33.9014 29.9912C33.8054 29.6954 33.5498 29.4797 33.2423 29.4353L24.575 28.1743L20.7053 20.3231C20.5678 20.0444 20.2838 19.8674 19.9728 19.8674C19.6619 19.8674 19.3782 20.0444 19.2404 20.3231L15.363 28.1743L6.69913 29.4341C6.39158 29.4785 6.13604 29.6942 6.03999 29.99C5.94393 30.2854 6.02404 30.61 6.24692 30.8268L12.5176 36.9406L11.0372 45.5702V45.5706C10.9844 45.877 11.1101 46.1868 11.3618 46.3699C11.6132 46.5525 11.9469 46.5764 12.2222 46.4317L19.9728 42.3535L27.7189 46.4295C27.9942 46.5745 28.3275 46.5506 28.5793 46.368C28.831 46.1857 28.9571 45.8759 28.9047 45.5695L28.1923 41.4141Z" fill="black"/>
<path d="M38.9593 31.0048L44.09 26.0049C44.3122 25.7881 44.3923 25.4639 44.2962 25.1681C44.2005 24.8727 43.945 24.6574 43.6374 24.6126L36.5467 23.5806L33.3759 17.1578V17.1574C33.2385 16.8791 32.9548 16.7029 32.6443 16.7029C32.3337 16.7029 32.05 16.8791 31.9122 17.1574L28.7402 23.5802L25.8011 24.0074V24.0078C25.5869 24.0389 25.3937 24.1539 25.2642 24.3278C25.1347 24.5014 25.0797 24.7193 25.1108 24.9335C25.1757 25.3796 25.59 25.689 26.0365 25.6241L29.4021 25.1343L29.4017 25.1339C29.6679 25.096 29.898 24.9289 30.0164 24.6878L32.6454 19.3615L35.274 24.6878C35.3929 24.9285 35.623 25.0956 35.8887 25.1339L41.763 25.9886L37.5101 30.1348C37.3176 30.3224 37.2299 30.5927 37.275 30.8578L38.2793 36.7115L33.0221 33.9473C32.623 33.737 32.1291 33.8896 31.9187 34.2887C31.7083 34.6877 31.861 35.1821 32.26 35.3924L38.987 38.9261C39.2619 39.0704 39.5953 39.0465 39.8466 38.8638C40.098 38.6812 40.2237 38.3718 40.1713 38.0654L38.9593 31.0048Z" fill="black"/>
<path d="M53.2021 20.9075L46.111 19.8777L42.9402 13.4549V13.4545C42.8027 13.1762 42.5191 13 42.2085 13C41.8979 13 41.6143 13.1762 41.4765 13.4545L38.1154 20.2624C38.0129 20.4571 37.9936 20.6853 38.0615 20.8946C38.1295 21.1038 38.2795 21.2769 38.4765 21.3745C38.674 21.4717 38.9022 21.4854 39.1099 21.4121C39.3175 21.3388 39.4865 21.185 39.5791 20.9853L42.2089 15.6586L44.8375 20.9849C44.956 21.2256 45.1861 21.3927 45.4519 21.4314L51.3306 22.2854L47.0777 26.4308V26.4312C46.8852 26.6188 46.7971 26.8891 46.8426 27.1541L47.8469 33.0079L42.5897 30.2444V30.2441C42.1906 30.0337 41.6967 30.1867 41.4863 30.5858C41.2755 30.9848 41.4285 31.4788 41.8276 31.6895L48.55 35.2232C48.8253 35.3679 49.1587 35.344 49.41 35.1614C49.6618 34.9787 49.7875 34.6689 49.7351 34.3625L48.5235 27.301L53.6542 22.2997C53.8767 22.0829 53.9565 21.7587 53.8608 21.4629C53.7647 21.1675 53.5092 20.9522 53.202 20.9074L53.2021 20.9075Z" fill="black"/>
</svg>
