<svg width="60" height="60" viewBox="0 0 60 60" fill="none" xmlns="http://www.w3.org/2000/svg">
<path d="M49.8591 15.4759C49.762 14.916 49.2774 14.5075 48.7103 14.5075H43.322C43.252 13.6541 43.1537 12.8112 43.0219 11.9851C42.9321 11.4175 42.4438 11 41.871 11H18.1574C17.5826 11 17.093 11.4208 17.0053 11.9908C16.8732 12.8467 16.7845 13.6839 16.7167 14.5074H11.2893C10.7222 14.5074 10.238 14.916 10.1404 15.4759C10.1043 15.6822 9.29605 20.5687 12.0032 24.4232C13.4509 26.4844 15.6121 27.8324 18.4152 28.4542C19.9759 32.8192 22.3858 36.1118 25.2959 37.8537L24.9544 42.4185H20.4962C19.9502 42.4185 19.4774 42.7985 19.3587 43.3327L18.1931 48.5756C18.1163 48.923 18.2001 49.2847 18.4216 49.5623C18.6432 49.8388 18.9778 49.9995 19.3315 49.9995H40.7013C40.7057 50.0007 40.7102 49.9995 40.713 49.9995C41.357 49.9995 41.8786 49.4763 41.8786 48.8305C41.8786 48.6853 41.8522 48.5462 41.8038 48.417L40.6736 43.3331C40.5549 42.799 40.0813 42.419 39.5361 42.419H35.08L34.7377 37.8419C37.7083 36.0633 40.1061 32.7067 41.6278 28.4456C44.4101 27.8189 46.5563 26.4737 47.9967 24.4232C50.7043 20.5691 49.8954 15.6823 49.8591 15.4759ZM12.341 16.8455H16.5894C16.5853 17.0478 16.5837 17.2459 16.5837 17.4417C16.5837 18.0847 16.6069 18.7249 16.6418 19.3625C16.6496 19.5024 16.6565 19.6414 16.6658 19.7801C16.7065 20.4027 16.7614 21.0217 16.8349 21.6342C16.8459 21.7275 16.8606 21.8189 16.8723 21.9122C16.9435 22.4701 17.0293 23.0213 17.1264 23.5665C17.1464 23.6783 17.1638 23.7916 17.1858 23.9021C17.2976 24.4938 17.4261 25.0752 17.5688 25.6477C17.581 25.6975 17.5891 25.7493 17.6021 25.799C12.5386 23.9483 12.2293 18.9682 12.341 16.8455ZM39.2466 47.6609H20.7847L21.4303 44.7561H26.0247C26.0283 44.7561 26.0316 44.7573 26.0356 44.7573H33.997C34.001 44.7585 34.0059 44.7573 34.0088 44.7573C34.0128 44.7573 34.0165 44.7561 34.0206 44.7561H38.6003L39.2466 47.6609ZM27.2925 42.418L27.5588 38.858C27.6633 38.8889 27.7673 38.9118 27.8722 38.9379C27.9304 38.9525 27.9881 38.9689 28.0466 38.9823C28.3341 39.0496 28.6223 39.1022 28.9122 39.1401C28.9784 39.1483 29.0455 39.1536 29.1134 39.1617C29.4012 39.1915 29.6891 39.2119 29.9777 39.2131C29.9907 39.2131 30.0041 39.2155 30.0167 39.2155C30.0289 39.2155 30.0424 39.2131 30.0546 39.2131C30.344 39.2119 30.6335 39.1915 30.9217 39.1617C30.9876 39.1536 31.0546 39.1483 31.1205 39.1401C31.4112 39.1026 31.7011 39.05 31.9889 38.9823C32.0454 38.9689 32.1007 38.9538 32.1572 38.9391C32.2633 38.9126 32.3686 38.8889 32.4743 38.858L32.7406 42.418H27.2925ZM33.0004 36.1468C31.5433 36.8738 30.0087 37.0556 28.5138 36.6928C28.0154 36.5716 27.5206 36.389 27.0348 36.1468C24.2955 34.7755 21.9006 31.5196 20.4476 27.1994C20.4325 27.1281 20.4073 27.0608 20.3793 26.9943C20.315 26.799 20.2565 26.5992 20.1955 26.3998C20.1447 26.2327 20.091 26.0683 20.0435 25.8983C19.9857 25.6948 19.9345 25.4861 19.8821 25.2793C19.8373 25.1056 19.7898 24.9344 19.7487 24.7586C19.6991 24.5499 19.656 24.3362 19.6113 24.125C19.5735 23.946 19.532 23.7694 19.4971 23.5888C19.4556 23.3735 19.4202 23.1537 19.3828 22.936C19.3519 22.7553 19.3182 22.5763 19.2901 22.3941C19.2552 22.169 19.2283 21.9411 19.1987 21.7135C19.1755 21.5345 19.1478 21.3576 19.1275 21.1773C19.1003 20.9372 19.0808 20.6946 19.0588 20.4524C19.0438 20.2827 19.0238 20.1139 19.0108 19.9439C18.9897 19.6662 18.9771 19.3861 18.9629 19.1068C18.956 18.9702 18.9454 18.8344 18.9401 18.697C18.9242 18.279 18.9161 17.8595 18.9161 17.4395C18.9161 16.9033 18.9308 16.3451 18.9616 15.7314C18.9982 14.9575 19.0702 14.1554 19.1722 13.3367H40.8626C40.9516 14.0442 41.0142 14.7635 41.0561 15.4901C41.0439 15.5696 41.0386 15.6507 41.0427 15.7331C41.0732 16.3455 41.0874 16.9042 41.0874 17.44C41.0874 20.8293 40.5723 24.1614 39.597 27.0756C39.5783 27.1327 39.573 27.1915 39.5625 27.2498C38.1367 31.4647 35.8234 34.7368 33.0004 36.1468ZM46.09 23.0757C45.2252 24.3076 43.9999 25.2148 42.4375 25.7869C43.088 23.2042 43.4454 20.3833 43.4454 17.441C43.4454 17.2416 43.4372 17.0435 43.4336 16.8449H47.6539C47.7226 18.2488 47.6096 20.9142 46.09 23.0757ZM35.392 30.7072C35.1949 31.1345 34.7737 31.3857 34.3338 31.3857C34.17 31.3857 34.0041 31.351 33.8456 31.2776C33.2609 31.0069 33.0064 30.3125 33.276 29.7261C36.4925 22.7438 35.6819 16.9275 35.6729 16.8701C35.5786 16.2312 36.0185 15.6367 36.6556 15.542C37.2885 15.4495 37.8846 15.8882 37.9793 16.5272C38.0187 16.7926 38.8976 23.0985 35.392 30.7072Z" fill="black"/>
</svg>
